# xmcd
#
# Track frame offsets: 
#        183
#        13283
#        32650
#        45465
#        60658
#        71920
#        100303
#        116615
#        132135
#        146855
#        159750
#        173393
#        195918
#        213725
#        227435
#        244368
#        262978
#        280880
#
# Disc length: 3947 seconds
#
# Revision: 8
# Processed by: cddbd v1.5.1PL2 Copyright (c) Steve Scherf et al.
# Submitted via: ExactAudioCopy v0.95b4
#
DISCID=fc0f6912
DTITLE=Lightfoot, Gordon - Gord's Gold Volume II
DYEAR=1988
DGENRE=Folk
TTITLE0=If It Should Please You
TTITLE1=Endless Wire
TTITLE2=Hangdog Hotel Room
TTITLE3=I'm Not Supposed To Care
TTITLE4=High and Dry
TTITLE5=The Wreck of the Edmund Fitzgerald
TTITLE6=The Pony Man
TTITLE7=Race Around the Ruins
TTITLE8=Christian Island
TTITLE9=All the Lovely Ladies
TTITLE10=Alberta Bound
TTITLE11=Cherokee Bend
TTITLE12=Triangle
TTITLE13=Shadows
TTITLE14=Make Way (for the Lady)
TTITLE15=Ghosts of Cape Horn
TTITLE16=Baby Step Back
TTITLE17=It's Worth Believin'
EXTD=
EXTT0=
EXTT1=
EXTT2=
EXTT3=
EXTT4=
EXTT5=
EXTT6=
EXTT7=
EXTT8=
EXTT9=
EXTT10=
EXTT11=
EXTT12=
EXTT13=
EXTT14=
EXTT15=
EXTT16=
EXTT17=
PLAYORDER=
